M48
; DRILL file {KiCad 7.0.1} date Tue Aug  8 21:15:57 2023
; FORMAT={-:-/ absolute / inch / decimal}
; #@! TF.CreationDate,2023-08-08T21:15:57-04:00
; #@! TF.GenerationSoftware,Kicad,Pcbnew,7.0.1
; #@! TF.FileFunction,Plated,1,4,PTH
FMAT,2
INCH
; #@! TA.AperFunction,Plated,PTH,ViaDrill
T1C0.0157
; #@! TA.AperFunction,Plated,PTH,ComponentDrill
T2C0.1260
%
G90
G05
T1
X5.32Y-3.976
X5.3203Y-4.0153
X5.3209Y-3.8592
X5.3212Y-3.8985
X5.322Y-4.094
X5.322Y-4.1334
X5.3224Y-4.2187
X5.324Y-4.258
X5.325Y-4.337
X5.46Y-3.956
X5.462Y-3.9162
X5.464Y-4.156
X5.464Y-4.1954
X5.466Y-4.0366
X5.466Y-4.076
X5.472Y-3.704
X5.472Y-3.748
X5.474Y-3.792
X5.4827Y-3.8402
X5.538Y-4.328
X5.548Y-4.464
X5.732Y-2.746
X5.804Y-2.928
X5.8355Y-2.978
X5.8626Y-2.666
X5.868Y-3.078
X5.8985Y-3.048
X5.902Y-2.666
X5.9267Y-2.536
X5.9307Y-3.1287
X5.9615Y-3.1
X5.966Y-2.5353
X5.99Y-2.666
X5.992Y-3.176
X6.01Y-4.1943
X6.012Y-4.038
X6.012Y-4.155
X6.0122Y-4.0774
X6.0135Y-3.9593
X6.016Y-3.92
X6.0245Y-3.144
X6.0293Y-2.6657
X6.0425Y-2.748
X6.048Y-4.134
X6.049Y-3.9779
X6.0491Y-4.0172
X6.05Y-4.2554
X6.05Y-2.5353
X6.05Y-4.094
X6.05Y-4.216
X6.0561Y-3.2181
X6.0569Y-3.8957
X6.058Y-3.856
X6.0888Y-3.1854
X6.092Y-2.536
X6.118Y-2.682
X6.1192Y-3.2622
X6.136Y-4.244
X6.14Y-4.364
X6.1509Y-3.2305
X6.156Y-2.666
X6.178Y-2.536
X6.182Y-3.312
X6.2134Y-3.282
X6.222Y-2.5353
X6.24Y-2.666
X6.244Y-3.386
X6.276Y-3.346
X6.281Y-2.665
X6.3192Y-2.6743
X6.3686Y-2.67
X6.372Y-2.95
X6.408Y-2.67
X6.47Y-2.678
T2
X5.428Y-2.693
X6.774Y-2.693
T0
M30
