%TF.GenerationSoftware,KiCad,Pcbnew,7.0.1*%
%TF.CreationDate,2023-08-08T21:16:00-04:00*%
%TF.ProjectId,syzygy-txr-to-std,73797a79-6779-42d7-9478-722d746f2d73,rev?*%
%TF.SameCoordinates,Original*%
%TF.FileFunction,Copper,L1,Top*%
%TF.FilePolarity,Positive*%
%FSLAX46Y46*%
G04 Gerber Fmt 4.6, Leading zero omitted, Abs format (unit mm)*
G04 Created by KiCad (PCBNEW 7.0.1) date 2023-08-08 21:16:00*
%MOMM*%
%LPD*%
G01*
G04 APERTURE LIST*
%TA.AperFunction,SMDPad,CuDef*%
%ADD10R,2.270000X0.280000*%
%TD*%
%TA.AperFunction,SMDPad,CuDef*%
%ADD11R,0.430000X2.540000*%
%TD*%
%TA.AperFunction,SMDPad,CuDef*%
%ADD12R,0.430000X4.700000*%
%TD*%
%TA.AperFunction,ComponentPad*%
%ADD13C,6.400000*%
%TD*%
%TA.AperFunction,SMDPad,CuDef*%
%ADD14R,0.410000X2.270000*%
%TD*%
%TA.AperFunction,SMDPad,CuDef*%
%ADD15R,2.540000X0.430000*%
%TD*%
%TA.AperFunction,SMDPad,CuDef*%
%ADD16R,4.700000X0.430000*%
%TD*%
%TA.AperFunction,ViaPad*%
%ADD17C,0.800000*%
%TD*%
%TA.AperFunction,Conductor*%
%ADD18C,0.250000*%
%TD*%
%TA.AperFunction,Conductor*%
%ADD19C,0.300000*%
%TD*%
%TA.AperFunction,Conductor*%
%ADD20C,0.200000*%
%TD*%
G04 APERTURE END LIST*
D10*
%TO.P,J1,01,SCL*%
%TO.N,/SCL*%
X137008000Y-96812800D03*
%TO.P,J1,02,+5V*%
%TO.N,/5V*%
X142748000Y-96812800D03*
%TO.P,J1,03,SDA*%
%TO.N,/SDA*%
X137008000Y-97312800D03*
%TO.P,J1,04,R_GA*%
%TO.N,/R_GA*%
X142748000Y-97312800D03*
%TO.P,J1,05,RX0P*%
%TO.N,/5*%
X137008000Y-98312800D03*
%TO.P,J1,06,TX0P*%
%TO.N,/6*%
X142748000Y-98312800D03*
%TO.P,J1,07,RX0N*%
%TO.N,/7*%
X137008000Y-98812800D03*
%TO.P,J1,08,TX0N*%
%TO.N,/8*%
X142748000Y-98812800D03*
%TO.P,J1,09,RX1P*%
%TO.N,/9*%
X137008000Y-99812800D03*
%TO.P,J1,10,TX1P*%
%TO.N,/10*%
X142748000Y-99812800D03*
%TO.P,J1,11,RX1N*%
%TO.N,/11*%
X137008000Y-100312800D03*
%TO.P,J1,12,TX1N*%
%TO.N,/12*%
X142748000Y-100312800D03*
%TO.P,J1,13,REFCLKP*%
%TO.N,/13*%
X137008000Y-101312800D03*
%TO.P,J1,14,S0*%
%TO.N,/14*%
X142748000Y-101312800D03*
%TO.P,J1,15,REFCLKN*%
%TO.N,/15*%
X137008000Y-101812800D03*
%TO.P,J1,16,S1*%
%TO.N,/16*%
X142748000Y-101812800D03*
%TO.P,J1,17,S2*%
%TO.N,/17*%
X137008000Y-102812800D03*
%TO.P,J1,18,S3*%
%TO.N,/18*%
X142748000Y-102812800D03*
%TO.P,J1,19,S4*%
%TO.N,/19*%
X137008000Y-103312800D03*
%TO.P,J1,20,S5*%
%TO.N,/20*%
X142748000Y-103312800D03*
%TO.P,J1,21,S6*%
%TO.N,/21*%
X137008000Y-104312800D03*
%TO.P,J1,22,S7*%
%TO.N,/22*%
X142748000Y-104312800D03*
%TO.P,J1,23,S8*%
%TO.N,/23*%
X137008000Y-104812800D03*
%TO.P,J1,24,S9*%
%TO.N,/24*%
X142748000Y-104812800D03*
%TO.P,J1,25,RX3P*%
%TO.N,/25*%
X137008000Y-105812800D03*
%TO.P,J1,26,TX3P*%
%TO.N,/26*%
X142748000Y-105812800D03*
%TO.P,J1,27,RX3N*%
%TO.N,/27*%
X137008000Y-106312800D03*
%TO.P,J1,28,TX3N*%
%TO.N,/28*%
X142748000Y-106312800D03*
%TO.P,J1,29,RX2P*%
%TO.N,/29*%
X137008000Y-107312800D03*
%TO.P,J1,30,TX2P*%
%TO.N,/30*%
X142748000Y-107312800D03*
%TO.P,J1,31,RX2N*%
%TO.N,/31*%
X137008000Y-107812800D03*
%TO.P,J1,32,TX2N*%
%TO.N,/32*%
X142748000Y-107812800D03*
%TO.P,J1,33,P2C_CLKP*%
%TO.N,/P2C_CLKP*%
X137008000Y-108812800D03*
%TO.P,J1,34,C2P_CLKP*%
%TO.N,/C2P_CLKP*%
X142748000Y-108812800D03*
%TO.P,J1,35,P2C_CLKN*%
%TO.N,/P2C_CLKN*%
X137008000Y-109312800D03*
%TO.P,J1,36,C2P_CLKN*%
%TO.N,/C2P_CLKN*%
X142748000Y-109312800D03*
%TO.P,J1,37,RSVD*%
%TO.N,/37*%
X137008000Y-110312800D03*
%TO.P,J1,38,RSVD*%
%TO.N,/38*%
X142748000Y-110312800D03*
%TO.P,J1,39,VIO1*%
%TO.N,/VIO1*%
X137008000Y-110812800D03*
%TO.P,J1,40,+3.3V*%
%TO.N,/3V3*%
X142748000Y-110812800D03*
D11*
%TO.P,J1,GND1,GND*%
%TO.N,GND*%
X139878000Y-95992800D03*
D12*
%TO.P,J1,GND2,GND__1*%
X139878000Y-100882800D03*
%TO.P,J1,GND3,GND__2*%
X139878000Y-107232800D03*
D11*
%TO.P,J1,GND4,GND__3*%
X139878000Y-112122800D03*
%TD*%
D13*
%TO.P,H2,1,1*%
%TO.N,unconnected-(H2-Pad1)*%
X137871201Y-68401399D03*
%TD*%
D14*
%TO.P,J2,01,SCL*%
%TO.N,/SCL*%
X147421601Y-71804999D03*
%TO.P,J2,02,+5V*%
%TO.N,/5V*%
X147421601Y-66074999D03*
%TO.P,J2,03,SDA*%
%TO.N,/SDA*%
X148221601Y-71804999D03*
%TO.P,J2,04,R_GA*%
%TO.N,/R_GA*%
X148221601Y-66074999D03*
%TO.P,J2,05,S0_D0P*%
%TO.N,/5*%
X149021601Y-71804999D03*
%TO.P,J2,06,S1_D1P*%
%TO.N,/6*%
X149021601Y-66074999D03*
%TO.P,J2,07,S2_D0N*%
%TO.N,/7*%
X149821601Y-71804999D03*
%TO.P,J2,08,S3_D1N*%
%TO.N,/8*%
X149821601Y-66074999D03*
%TO.P,J2,09,S4_D2P*%
%TO.N,/9*%
X150621601Y-71804999D03*
%TO.P,J2,10,S5_D3P*%
%TO.N,/10*%
X150621601Y-66074999D03*
%TO.P,J2,11,S6_D2N*%
%TO.N,/11*%
X151421601Y-71804999D03*
%TO.P,J2,12,S7_D3N*%
%TO.N,/12*%
X151421601Y-66074999D03*
%TO.P,J2,13,S8_D4P*%
%TO.N,/13*%
X152221601Y-71804999D03*
%TO.P,J2,14,S9_D5P*%
%TO.N,/14*%
X152221601Y-66074999D03*
%TO.P,J2,15,S10_D4N*%
%TO.N,/15*%
X153021601Y-71804999D03*
%TO.P,J2,16,S11_D5N*%
%TO.N,/16*%
X153021601Y-66074999D03*
%TO.P,J2,17,S12_D6P*%
%TO.N,/17*%
X153821601Y-71804999D03*
%TO.P,J2,18,S13_D7P*%
%TO.N,/18*%
X153821601Y-66074999D03*
%TO.P,J2,19,S14_D6N*%
%TO.N,/19*%
X154621601Y-71804999D03*
%TO.P,J2,20,S15_D7N*%
%TO.N,/20*%
X154621601Y-66074999D03*
%TO.P,J2,21,S16*%
%TO.N,/21*%
X155421601Y-71804999D03*
%TO.P,J2,22,S17*%
%TO.N,/22*%
X155421601Y-66074999D03*
%TO.P,J2,23,S18*%
%TO.N,/23*%
X156221601Y-71804999D03*
%TO.P,J2,24,S19*%
%TO.N,/24*%
X156221601Y-66074999D03*
%TO.P,J2,25,S20*%
%TO.N,/25*%
X157021601Y-71804999D03*
%TO.P,J2,26,S21*%
%TO.N,/26*%
X157021601Y-66074999D03*
%TO.P,J2,27,S22*%
%TO.N,/27*%
X157821601Y-71804999D03*
%TO.P,J2,28,S23*%
%TO.N,/28*%
X157821601Y-66074999D03*
%TO.P,J2,29,S24*%
%TO.N,/29*%
X158621601Y-71804999D03*
%TO.P,J2,30,S25*%
%TO.N,/30*%
X158621601Y-66074999D03*
%TO.P,J2,31,S26*%
%TO.N,/31*%
X159421601Y-71804999D03*
%TO.P,J2,32,S27*%
%TO.N,/32*%
X159421601Y-66074999D03*
%TO.P,J2,33,P2C_CLKP*%
%TO.N,/P2C_CLKP*%
X160221601Y-71804999D03*
%TO.P,J2,34,C2P_CLKP*%
%TO.N,/C2P_CLKP*%
X160221601Y-66074999D03*
%TO.P,J2,35,P2C_CLKN*%
%TO.N,/P2C_CLKN*%
X161021601Y-71804999D03*
%TO.P,J2,36,C2P_CLKN*%
%TO.N,/C2P_CLKN*%
X161021601Y-66074999D03*
%TO.P,J2,37,RSVD*%
%TO.N,/37*%
X161821601Y-71804999D03*
%TO.P,J2,38,RSVD*%
%TO.N,/38*%
X161821601Y-66074999D03*
%TO.P,J2,39,VIO1*%
%TO.N,/VIO1*%
X162621601Y-71804999D03*
%TO.P,J2,40,+3.3V*%
%TO.N,/3V3*%
X162621601Y-66074999D03*
D15*
%TO.P,J2,G1,GND*%
%TO.N,GND*%
X146951601Y-68939999D03*
D16*
%TO.P,J2,G2,GND__1*%
X151841601Y-68939999D03*
%TO.P,J2,G3,GND__2*%
X158191601Y-68939999D03*
D15*
%TO.P,J2,G4,GND__3*%
X163081601Y-68939999D03*
%TD*%
D13*
%TO.P,H1,1,1*%
%TO.N,unconnected-(H1-Pad1)*%
X172059601Y-68401399D03*
%TD*%
D17*
%TO.N,/SCL*%
X138988800Y-95199200D03*
X147421601Y-74371200D03*
%TO.N,/SDA*%
X139039600Y-96316800D03*
X148221601Y-75641200D03*
%TO.N,/5*%
X149047200Y-78181200D03*
X135149655Y-98023500D03*
%TO.N,/6*%
X153873200Y-97942400D03*
X148911297Y-67716400D03*
%TO.N,/7*%
X135159553Y-99022954D03*
X149821601Y-77419200D03*
%TO.N,/8*%
X149910800Y-67716400D03*
X153845722Y-98951005D03*
%TO.N,/9*%
X138734800Y-99472500D03*
X150639697Y-79468897D03*
%TO.N,/10*%
X150537069Y-64415033D03*
X152806400Y-99568000D03*
%TO.N,/11*%
X138684000Y-100482400D03*
X151421601Y-78740000D03*
%TO.N,/12*%
X152744053Y-100565556D03*
X151536400Y-64396511D03*
%TO.N,/13*%
X135128000Y-100990400D03*
X152196800Y-80670400D03*
%TO.N,/14*%
X152146000Y-67716400D03*
X153644391Y-101038478D03*
%TO.N,/15*%
X135135290Y-101989876D03*
X153021601Y-79857600D03*
%TO.N,/16*%
X153647035Y-102037977D03*
X153145467Y-67708025D03*
%TO.N,/17*%
X153824951Y-81740550D03*
X138836400Y-102530897D03*
%TO.N,/18*%
X153670000Y-64396511D03*
X152704800Y-102565200D03*
%TO.N,/19*%
X138836400Y-103530400D03*
X154656751Y-80908750D03*
%TO.N,/20*%
X152709761Y-103564690D03*
X154736800Y-64414400D03*
%TO.N,/21*%
X155427098Y-82860297D03*
X135178800Y-103987600D03*
%TO.N,/22*%
X153670000Y-103987600D03*
X155397200Y-68122800D03*
%TO.N,/23*%
X135178800Y-104987103D03*
X156233498Y-82053897D03*
%TO.N,/24*%
X156362400Y-67716400D03*
X153619200Y-105003600D03*
%TO.N,/25*%
X157021601Y-84124800D03*
X138785600Y-105562400D03*
%TO.N,/26*%
X156921200Y-64414400D03*
X152704800Y-105537300D03*
%TO.N,/27*%
X157821601Y-83362800D03*
X138785600Y-106561903D03*
%TO.N,/28*%
X152653595Y-106535490D03*
X158038800Y-64396511D03*
%TO.N,/29*%
X158597600Y-86004400D03*
X135189719Y-107154493D03*
%TO.N,/30*%
X153670000Y-107086400D03*
X158496000Y-67716400D03*
%TO.N,/31*%
X159410400Y-84988400D03*
X135229600Y-108153200D03*
%TO.N,/32*%
X159537400Y-67691000D03*
X153669247Y-108085902D03*
%TO.N,/37*%
X161848800Y-74930000D03*
X135255000Y-110159800D03*
%TO.N,/38*%
X155854400Y-107797600D03*
X161763697Y-67818000D03*
%TO.N,/3V3*%
X155956000Y-110845600D03*
X162763200Y-67818000D03*
%TO.N,GND*%
X160508584Y-67927234D03*
X140919200Y-113385600D03*
X139261085Y-97540985D03*
X153480100Y-69799200D03*
X138988800Y-94081600D03*
X145592800Y-69748400D03*
X140665200Y-109931200D03*
X164338000Y-68021200D03*
%TD*%
D18*
%TO.N,/SCL*%
X138277600Y-96469200D02*
X138277600Y-95910400D01*
X138277600Y-95910400D02*
X138988800Y-95199200D01*
X137934000Y-96812800D02*
X138277600Y-96469200D01*
X137008000Y-96812800D02*
X137934000Y-96812800D01*
X147421601Y-74371200D02*
X147421601Y-71804999D01*
D19*
%TO.N,/5V*%
X143928400Y-96812800D02*
X142748000Y-96812800D01*
X145592800Y-67665600D02*
X144729200Y-68529200D01*
X147421601Y-66074999D02*
X147421601Y-67309999D01*
X144729200Y-68529200D02*
X144729200Y-96012000D01*
X147421601Y-67309999D02*
X147066000Y-67665600D01*
X144729200Y-96012000D02*
X143928400Y-96812800D01*
X147066000Y-67665600D02*
X145592800Y-67665600D01*
D18*
%TO.N,/SDA*%
X148221601Y-75641200D02*
X148221601Y-71804999D01*
X137008000Y-97312800D02*
X138463965Y-97312800D01*
X139039600Y-96737165D02*
X139039600Y-96316800D01*
X138463965Y-97312800D02*
X139039600Y-96737165D01*
D20*
%TO.N,/R_GA*%
X148221601Y-67409999D02*
X148211297Y-67420303D01*
X145643600Y-96500000D02*
X144830800Y-97312800D01*
X148521601Y-68424999D02*
X148521601Y-69308799D01*
X145643600Y-70967600D02*
X145643600Y-96500000D01*
X148521601Y-69308799D02*
X147878800Y-69951600D01*
X147878800Y-69951600D02*
X146659600Y-69951600D01*
X148211297Y-67420303D02*
X148211297Y-68114695D01*
X146659600Y-69951600D02*
X145643600Y-70967600D01*
X148221601Y-66074999D02*
X148221601Y-67409999D01*
X144830800Y-97312800D02*
X142748000Y-97312800D01*
X148211297Y-68114695D02*
X148521601Y-68424999D01*
D18*
%TO.N,/5*%
X149047200Y-78181200D02*
X149047200Y-71830598D01*
X135438955Y-98312800D02*
X137008000Y-98312800D01*
X135149655Y-98023500D02*
X135438955Y-98312800D01*
X149047200Y-71830598D02*
X149021601Y-71804999D01*
%TO.N,/6*%
X153502800Y-98312800D02*
X153873200Y-97942400D01*
X149021601Y-66074999D02*
X149021601Y-67606096D01*
X149021601Y-67606096D02*
X148911297Y-67716400D01*
X142748000Y-98312800D02*
X153502800Y-98312800D01*
%TO.N,/7*%
X135369707Y-98812800D02*
X137008000Y-98812800D01*
X149821601Y-77419200D02*
X149821601Y-71804999D01*
X135159553Y-99022954D02*
X135369707Y-98812800D01*
%TO.N,/8*%
X142748000Y-98812800D02*
X153707517Y-98812800D01*
X153707517Y-98812800D02*
X153845722Y-98951005D01*
X149821601Y-67627201D02*
X149821601Y-66074999D01*
X149910800Y-67716400D02*
X149821601Y-67627201D01*
%TO.N,/9*%
X150639697Y-79468897D02*
X150622000Y-79451200D01*
X137008000Y-99812800D02*
X138394500Y-99812800D01*
X150622000Y-79451200D02*
X150622000Y-71805398D01*
X138394500Y-99812800D02*
X138734800Y-99472500D01*
X150622000Y-71805398D02*
X150621601Y-71804999D01*
%TO.N,/10*%
X152561600Y-99812800D02*
X152806400Y-99568000D01*
X150621601Y-64499565D02*
X150537069Y-64415033D01*
X142748000Y-99812800D02*
X152561600Y-99812800D01*
X150621601Y-66074999D02*
X150621601Y-64499565D01*
%TO.N,/11*%
X137008000Y-100312800D02*
X138514400Y-100312800D01*
X138514400Y-100312800D02*
X138684000Y-100482400D01*
X151421601Y-78740000D02*
X151421601Y-71804999D01*
%TO.N,/12*%
X142748000Y-100312800D02*
X152491297Y-100312800D01*
X152491297Y-100312800D02*
X152744053Y-100565556D01*
X151421601Y-66074999D02*
X151421601Y-64511310D01*
X151421601Y-64511310D02*
X151536400Y-64396511D01*
%TO.N,/13*%
X152196800Y-80670400D02*
X152196800Y-71829800D01*
X135128000Y-100990400D02*
X135450400Y-101312800D01*
X152196800Y-71829800D02*
X152221601Y-71804999D01*
X135450400Y-101312800D02*
X137008000Y-101312800D01*
%TO.N,/14*%
X153644391Y-101038478D02*
X153370069Y-101312800D01*
X152221601Y-66074999D02*
X152221601Y-67640799D01*
X153370069Y-101312800D02*
X142748000Y-101312800D01*
X152221601Y-67640799D02*
X152146000Y-67716400D01*
%TO.N,/15*%
X135135290Y-101989876D02*
X135312366Y-101812800D01*
X135312366Y-101812800D02*
X137008000Y-101812800D01*
X153021601Y-79857600D02*
X153021601Y-71804999D01*
%TO.N,/16*%
X153021601Y-67584159D02*
X153021601Y-66074999D01*
X153145467Y-67708025D02*
X153021601Y-67584159D01*
X153421858Y-101812800D02*
X153647035Y-102037977D01*
X142748000Y-101812800D02*
X153421858Y-101812800D01*
%TO.N,/17*%
X138554497Y-102812800D02*
X137008000Y-102812800D01*
X153821601Y-81737200D02*
X153821601Y-71804999D01*
X138836400Y-102530897D02*
X138554497Y-102812800D01*
X153824951Y-81740550D02*
X153821601Y-81737200D01*
%TO.N,/18*%
X152457200Y-102812800D02*
X152704800Y-102565200D01*
X153821601Y-66074999D02*
X153821601Y-64515201D01*
X153702911Y-64396511D02*
X153670000Y-64396511D01*
X153821601Y-64515201D02*
X153702911Y-64396511D01*
X142748000Y-102812800D02*
X152457200Y-102812800D01*
%TO.N,/19*%
X137008000Y-103312800D02*
X138618800Y-103312800D01*
X138618800Y-103312800D02*
X138836400Y-103530400D01*
X154621601Y-80873600D02*
X154621601Y-71804999D01*
X154656751Y-80908750D02*
X154621601Y-80873600D01*
%TO.N,/20*%
X154621601Y-64529599D02*
X154736800Y-64414400D01*
X154621601Y-66074999D02*
X154621601Y-64529599D01*
X142748000Y-103312800D02*
X152457871Y-103312800D01*
X152457871Y-103312800D02*
X152709761Y-103564690D01*
%TO.N,/21*%
X155427098Y-82860297D02*
X155421601Y-82854800D01*
X155421601Y-82854800D02*
X155421601Y-71804999D01*
X135504000Y-104312800D02*
X135178800Y-103987600D01*
X137008000Y-104312800D02*
X135504000Y-104312800D01*
%TO.N,/22*%
X155421601Y-68025058D02*
X155421601Y-68098399D01*
X155421601Y-68025058D02*
X155421601Y-66074999D01*
X155421601Y-68098399D02*
X155397200Y-68122800D01*
X153670000Y-103987600D02*
X153344800Y-104312800D01*
X153344800Y-104312800D02*
X142748000Y-104312800D01*
%TO.N,/23*%
X135353103Y-104812800D02*
X135178800Y-104987103D01*
X156221601Y-82042000D02*
X156221601Y-71804999D01*
X156233498Y-82053897D02*
X156221601Y-82042000D01*
X137008000Y-104812800D02*
X135353103Y-104812800D01*
%TO.N,/24*%
X156221601Y-67575601D02*
X156362400Y-67716400D01*
X156221601Y-66074999D02*
X156221601Y-67575601D01*
X153619200Y-105003600D02*
X153428400Y-104812800D01*
X153428400Y-104812800D02*
X142748000Y-104812800D01*
%TO.N,/25*%
X137008000Y-105812800D02*
X138535200Y-105812800D01*
X138535200Y-105812800D02*
X138785600Y-105562400D01*
X157021601Y-84124800D02*
X157021601Y-71804999D01*
%TO.N,/26*%
X157021601Y-64514801D02*
X156921200Y-64414400D01*
X152429300Y-105812800D02*
X142748000Y-105812800D01*
X152704800Y-105537300D02*
X152429300Y-105812800D01*
X157021601Y-66074999D02*
X157021601Y-64514801D01*
%TO.N,/27*%
X138536497Y-106312800D02*
X138785600Y-106561903D01*
X137008000Y-106312800D02*
X138536497Y-106312800D01*
X157821601Y-83362800D02*
X157821601Y-71804999D01*
%TO.N,/28*%
X157821601Y-64613710D02*
X158038800Y-64396511D01*
X157821601Y-66074999D02*
X157821601Y-64613710D01*
X152653595Y-106535490D02*
X152430905Y-106312800D01*
X152430905Y-106312800D02*
X142748000Y-106312800D01*
%TO.N,/29*%
X135348026Y-107312800D02*
X137008000Y-107312800D01*
X158621601Y-85980399D02*
X158621601Y-71804999D01*
X135189719Y-107154493D02*
X135348026Y-107312800D01*
X158597600Y-86004400D02*
X158621601Y-85980399D01*
%TO.N,/30*%
X158496000Y-67716400D02*
X158621601Y-67590799D01*
X153443600Y-107312800D02*
X142748000Y-107312800D01*
X158621601Y-67590799D02*
X158621601Y-66074999D01*
X153670000Y-107086400D02*
X153443600Y-107312800D01*
%TO.N,/31*%
X135229600Y-108153200D02*
X135570000Y-107812800D01*
X159410400Y-84988400D02*
X159421601Y-84977199D01*
X135570000Y-107812800D02*
X137008000Y-107812800D01*
X159421601Y-84977199D02*
X159421601Y-71804999D01*
%TO.N,/32*%
X153396145Y-107812800D02*
X142748000Y-107812800D01*
X153669247Y-108085902D02*
X153396145Y-107812800D01*
X159421601Y-67575201D02*
X159421601Y-66074999D01*
X159537400Y-67691000D02*
X159421601Y-67575201D01*
D20*
%TO.N,/P2C_CLKP*%
X140199600Y-115700600D02*
X139061400Y-114562400D01*
X138003000Y-108812800D02*
X137008000Y-108812800D01*
X138028000Y-108837800D02*
X138003000Y-108812800D01*
X160221601Y-73507500D02*
X160396601Y-73682500D01*
X139061400Y-114562400D02*
X139061400Y-109330000D01*
X139061400Y-109330000D02*
X138569200Y-108837800D01*
X158352000Y-115700600D02*
X140199600Y-115700600D01*
X160396601Y-73682500D02*
X160396601Y-113655999D01*
X160396601Y-113655999D02*
X158352000Y-115700600D01*
X160221601Y-71804999D02*
X160221601Y-73507500D01*
X138569200Y-108837800D02*
X138028000Y-108837800D01*
%TO.N,/C2P_CLKP*%
X141093400Y-108618800D02*
X141093400Y-72737200D01*
X141312400Y-108837800D02*
X141093400Y-108618800D01*
X160396601Y-64969999D02*
X160221601Y-65144999D01*
X160396601Y-64448801D02*
X160396601Y-64969999D01*
X144443989Y-63697011D02*
X159644811Y-63697011D01*
X141753000Y-108812800D02*
X141728000Y-108837800D01*
X142617400Y-65523600D02*
X144443989Y-63697011D01*
X142748000Y-108812800D02*
X141753000Y-108812800D01*
X159644811Y-63697011D02*
X160396601Y-64448801D01*
X142617400Y-71213200D02*
X142617400Y-65523600D01*
X141728000Y-108837800D02*
X141312400Y-108837800D01*
X160221601Y-65144999D02*
X160221601Y-66074999D01*
X141093400Y-72737200D02*
X142617400Y-71213200D01*
%TO.N,/P2C_CLKN*%
X161021601Y-71804999D02*
X161021601Y-73507500D01*
X160846601Y-113842399D02*
X158538400Y-116150600D01*
X138611400Y-114748800D02*
X138611400Y-109516400D01*
X161021601Y-73507500D02*
X160846601Y-73682500D01*
X138028000Y-109287800D02*
X138003000Y-109312800D01*
X138003000Y-109312800D02*
X137008000Y-109312800D01*
X138611400Y-109516400D02*
X138382800Y-109287800D01*
X140013200Y-116150600D02*
X138611400Y-114748800D01*
X160846601Y-73682500D02*
X160846601Y-113842399D01*
X138382800Y-109287800D02*
X138028000Y-109287800D01*
X158538400Y-116150600D02*
X140013200Y-116150600D01*
%TO.N,/C2P_CLKN*%
X159831211Y-63247011D02*
X160846601Y-64262401D01*
X161021601Y-65144999D02*
X161021601Y-66074999D01*
X144257589Y-63247011D02*
X159831211Y-63247011D01*
X140643400Y-108805200D02*
X140643400Y-72550800D01*
X160846601Y-64262401D02*
X160846601Y-64969999D01*
X140643400Y-72550800D02*
X142167400Y-71026800D01*
X141728000Y-109287800D02*
X141126000Y-109287800D01*
X141126000Y-109287800D02*
X140643400Y-108805200D01*
X142167400Y-65337200D02*
X144257589Y-63247011D01*
X142748000Y-109312800D02*
X141753000Y-109312800D01*
X142167400Y-71026800D02*
X142167400Y-65337200D01*
X141753000Y-109312800D02*
X141728000Y-109287800D01*
X160846601Y-64969999D02*
X161021601Y-65144999D01*
D18*
%TO.N,/37*%
X161821601Y-71804999D02*
X161821601Y-74902801D01*
X135408000Y-110312800D02*
X137008000Y-110312800D01*
X161821601Y-74902801D02*
X161848800Y-74930000D01*
X135255000Y-110159800D02*
X135408000Y-110312800D01*
%TO.N,/38*%
X161763697Y-67818000D02*
X161821601Y-67760096D01*
X153339200Y-110312800D02*
X142748000Y-110312800D01*
X161821601Y-67760096D02*
X161821601Y-66074999D01*
X155854400Y-107797600D02*
X153339200Y-110312800D01*
D19*
%TO.N,/VIO1*%
X162621601Y-71804999D02*
X162621601Y-116829199D01*
X135178800Y-111607600D02*
X135973600Y-110812800D01*
X135178800Y-118160800D02*
X135178800Y-111607600D01*
X135973600Y-110812800D02*
X137008000Y-110812800D01*
X162621601Y-116829199D02*
X160426400Y-119024400D01*
X160426400Y-119024400D02*
X136042400Y-119024400D01*
X136042400Y-119024400D02*
X135178800Y-118160800D01*
%TO.N,/3V3*%
X155923200Y-110812800D02*
X155956000Y-110845600D01*
D18*
X162621601Y-67676401D02*
X162621601Y-66074999D01*
D19*
X142748000Y-110812800D02*
X155923200Y-110812800D01*
D18*
X162763200Y-67818000D02*
X162621601Y-67676401D01*
%TO.N,GND*%
X139878000Y-95992800D02*
X139878000Y-94970800D01*
X139261085Y-97540985D02*
X139878000Y-98157900D01*
X158191601Y-68939999D02*
X159495819Y-68939999D01*
X159495819Y-68939999D02*
X160508584Y-67927234D01*
X139878000Y-112344400D02*
X140919200Y-113385600D01*
X152620899Y-68939999D02*
X153480100Y-69799200D01*
X163081601Y-68939999D02*
X163419201Y-68939999D01*
X139878000Y-94970800D02*
X138988800Y-94081600D01*
X146401201Y-68939999D02*
X145592800Y-69748400D01*
X139878000Y-112122800D02*
X139878000Y-112344400D01*
X139878000Y-107232800D02*
X139878000Y-109144000D01*
X146951601Y-68939999D02*
X146401201Y-68939999D01*
X163419201Y-68939999D02*
X164338000Y-68021200D01*
X139878000Y-98157900D02*
X139878000Y-100882800D01*
X139878000Y-109144000D02*
X140665200Y-109931200D01*
X151841601Y-68939999D02*
X152620899Y-68939999D01*
%TD*%
M02*
