%TF.GenerationSoftware,KiCad,Pcbnew,7.0.1*%
%TF.CreationDate,2023-08-08T21:16:00-04:00*%
%TF.ProjectId,syzygy-txr-to-std,73797a79-6779-42d7-9478-722d746f2d73,rev?*%
%TF.SameCoordinates,Original*%
%TF.FileFunction,Copper,L3,Inr*%
%TF.FilePolarity,Positive*%
%FSLAX46Y46*%
G04 Gerber Fmt 4.6, Leading zero omitted, Abs format (unit mm)*
G04 Created by KiCad (PCBNEW 7.0.1) date 2023-08-08 21:16:00*
%MOMM*%
%LPD*%
G01*
G04 APERTURE LIST*
%TA.AperFunction,ComponentPad*%
%ADD10C,6.400000*%
%TD*%
%TA.AperFunction,ViaPad*%
%ADD11C,0.800000*%
%TD*%
%TA.AperFunction,Conductor*%
%ADD12C,0.250000*%
%TD*%
G04 APERTURE END LIST*
D10*
%TO.N,unconnected-(H2-Pad1)*%
%TO.C,H2*%
X137871201Y-68401399D03*
%TD*%
%TO.N,unconnected-(H1-Pad1)*%
%TO.C,H1*%
X172059601Y-68401399D03*
%TD*%
D11*
%TO.N,/SCL*%
X138988800Y-95199200D03*
X147421601Y-74371200D03*
%TO.N,/SDA*%
X139039600Y-96316800D03*
X148221601Y-75641200D03*
%TO.N,/5*%
X149047200Y-78181200D03*
X135149655Y-98023500D03*
%TO.N,/6*%
X153873200Y-97942400D03*
X148911297Y-67716400D03*
%TO.N,/7*%
X135159553Y-99022954D03*
X149821601Y-77419200D03*
%TO.N,/8*%
X149910800Y-67716400D03*
X153845722Y-98951005D03*
%TO.N,/9*%
X138734800Y-99472500D03*
X150639697Y-79468897D03*
%TO.N,/10*%
X150537069Y-64415033D03*
X152806400Y-99568000D03*
%TO.N,/11*%
X138684000Y-100482400D03*
X151421601Y-78740000D03*
%TO.N,/12*%
X152744053Y-100565556D03*
X151536400Y-64396511D03*
%TO.N,/13*%
X135128000Y-100990400D03*
X152196800Y-80670400D03*
%TO.N,/14*%
X152146000Y-67716400D03*
X153644391Y-101038478D03*
%TO.N,/15*%
X135135290Y-101989876D03*
X153021601Y-79857600D03*
%TO.N,/16*%
X153647035Y-102037977D03*
X153145467Y-67708025D03*
%TO.N,/17*%
X153824951Y-81740550D03*
X138836400Y-102530897D03*
%TO.N,/18*%
X153670000Y-64396511D03*
X152704800Y-102565200D03*
%TO.N,/19*%
X138836400Y-103530400D03*
X154656751Y-80908750D03*
%TO.N,/20*%
X152709761Y-103564690D03*
X154736800Y-64414400D03*
%TO.N,/21*%
X155427098Y-82860297D03*
X135178800Y-103987600D03*
%TO.N,/22*%
X153670000Y-103987600D03*
X155397200Y-68122800D03*
%TO.N,/23*%
X135178800Y-104987103D03*
X156233498Y-82053897D03*
%TO.N,/24*%
X156362400Y-67716400D03*
X153619200Y-105003600D03*
%TO.N,/25*%
X157021601Y-84124800D03*
X138785600Y-105562400D03*
%TO.N,/26*%
X156921200Y-64414400D03*
X152704800Y-105537300D03*
%TO.N,/27*%
X157821601Y-83362800D03*
X138785600Y-106561903D03*
%TO.N,/28*%
X152653595Y-106535490D03*
X158038800Y-64396511D03*
%TO.N,/29*%
X158597600Y-86004400D03*
X135189719Y-107154493D03*
%TO.N,/30*%
X153670000Y-107086400D03*
X158496000Y-67716400D03*
%TO.N,/31*%
X159410400Y-84988400D03*
X135229600Y-108153200D03*
%TO.N,/32*%
X159537400Y-67691000D03*
X153669247Y-108085902D03*
%TO.N,/37*%
X161848800Y-74930000D03*
X135255000Y-110159800D03*
%TO.N,/38*%
X155854400Y-107797600D03*
X161763697Y-67818000D03*
%TO.N,/3V3*%
X155956000Y-110845600D03*
X162763200Y-67818000D03*
%TO.N,GND*%
X160508584Y-67927234D03*
X140919200Y-113385600D03*
X139261085Y-97540985D03*
X153480100Y-69799200D03*
X138988800Y-94081600D03*
X145592800Y-69748400D03*
X140665200Y-109931200D03*
X164338000Y-68021200D03*
%TD*%
D12*
%TO.N,/6*%
X148911297Y-67716400D02*
X148946601Y-67751704D01*
X147630998Y-77876400D02*
X147630998Y-87938206D01*
X154129158Y-97686442D02*
X153873200Y-97942400D01*
X154129158Y-94436366D02*
X154129158Y-97686442D01*
X147630998Y-87938206D02*
X154129158Y-94436366D01*
X148946601Y-76560797D02*
X147630998Y-77876400D01*
X148946601Y-67751704D02*
X148946601Y-76560797D01*
%TO.N,/8*%
X154598200Y-94269012D02*
X148096794Y-87767606D01*
X148096794Y-78047000D02*
X149910800Y-76232994D01*
X148096794Y-87767606D02*
X148096794Y-78047000D01*
X149910800Y-76232994D02*
X149910800Y-67716400D01*
X153889900Y-98951005D02*
X154598200Y-98242705D01*
X154598200Y-98242705D02*
X154598200Y-94269012D01*
X153845722Y-98951005D02*
X153889900Y-98951005D01*
%TO.N,/10*%
X152914405Y-99676005D02*
X152806400Y-99568000D01*
X150537069Y-64415033D02*
X150635800Y-64513764D01*
X148749600Y-79698000D02*
X148749600Y-87784016D01*
X155048200Y-94082616D02*
X155048200Y-98773832D01*
X155048200Y-98773832D02*
X154146027Y-99676005D01*
X154146027Y-99676005D02*
X152914405Y-99676005D01*
X148749600Y-87784016D02*
X155048200Y-94082616D01*
X150635800Y-77811800D02*
X148749600Y-79698000D01*
X150635800Y-64513764D02*
X150635800Y-77811800D01*
%TO.N,/12*%
X149199600Y-87579200D02*
X155498200Y-93877800D01*
X152996131Y-100313478D02*
X152744053Y-100565556D01*
X151536400Y-64396511D02*
X151421000Y-64511911D01*
X155498200Y-98960228D02*
X154144950Y-100313478D01*
X149199600Y-79884396D02*
X149199600Y-87579200D01*
X151421000Y-64511911D02*
X151421000Y-77662996D01*
X151421000Y-77662996D02*
X149199600Y-79884396D01*
X155498200Y-93877800D02*
X155498200Y-98960228D01*
X154144950Y-100313478D02*
X152996131Y-100313478D01*
X151536400Y-64396511D02*
X151347000Y-64585911D01*
%TO.N,/14*%
X155948200Y-99146624D02*
X154056346Y-101038478D01*
X152146601Y-79040305D02*
X149970196Y-81216710D01*
X152146000Y-67716400D02*
X152146601Y-67717001D01*
X152146601Y-67717001D02*
X152146601Y-79040305D01*
X149970196Y-81216710D02*
X149970196Y-87713400D01*
X155948200Y-93691404D02*
X155948200Y-99146624D01*
X149970196Y-87713400D02*
X155948200Y-93691404D01*
X154056346Y-101038478D02*
X153644391Y-101038478D01*
%TO.N,/16*%
X152755600Y-79067702D02*
X150420196Y-81403106D01*
X156398200Y-93505008D02*
X156398200Y-99333020D01*
X153145467Y-68037733D02*
X152755600Y-68427600D01*
X156398200Y-99333020D02*
X153693243Y-102037977D01*
X152755600Y-68427600D02*
X152755600Y-79067702D01*
X153145467Y-67708025D02*
X153145467Y-68037733D01*
X150420196Y-81403106D02*
X150420196Y-87527004D01*
X150420196Y-87527004D02*
X156398200Y-93505008D01*
X153693243Y-102037977D02*
X153647035Y-102037977D01*
%TO.N,/18*%
X152902577Y-102762977D02*
X152704800Y-102565200D01*
X151271794Y-82632712D02*
X151271794Y-87742206D01*
X151271794Y-87742206D02*
X156848200Y-93318612D01*
X156848200Y-99895000D02*
X153980223Y-102762977D01*
X154205100Y-64931611D02*
X154205100Y-79699406D01*
X153670000Y-64396511D02*
X154205100Y-64931611D01*
X156848200Y-93318612D02*
X156848200Y-99895000D01*
X153980223Y-102762977D02*
X152902577Y-102762977D01*
X154205100Y-79699406D02*
X151271794Y-82632712D01*
%TO.N,/20*%
X151742392Y-82798510D02*
X151742392Y-87576408D01*
X157298200Y-100081396D02*
X154116996Y-103262600D01*
X157298200Y-93132216D02*
X157298200Y-100081396D01*
X154655100Y-79885802D02*
X151742392Y-82798510D01*
X154655100Y-64496100D02*
X154655100Y-79885802D01*
X154116996Y-103262600D02*
X153011851Y-103262600D01*
X151742392Y-87576408D02*
X157298200Y-93132216D01*
X154736800Y-64414400D02*
X154655100Y-64496100D01*
X153011851Y-103262600D02*
X152709761Y-103564690D01*
%TO.N,/22*%
X157748200Y-92945820D02*
X157748200Y-100267792D01*
X157748200Y-100267792D02*
X154028392Y-103987600D01*
X155651200Y-68376800D02*
X155651200Y-80975200D01*
X154028392Y-103987600D02*
X153670000Y-103987600D01*
X152644790Y-83981610D02*
X152644790Y-87842410D01*
X155397200Y-68122800D02*
X155651200Y-68376800D01*
X152644790Y-87842410D02*
X157748200Y-92945820D01*
X155651200Y-80975200D02*
X155473400Y-81153000D01*
X155397200Y-81229200D02*
X152644790Y-83981610D01*
%TO.N,/24*%
X156362400Y-67716400D02*
X156362400Y-67947751D01*
X158198200Y-92759424D02*
X158198200Y-100577000D01*
X156122200Y-67956600D02*
X156122200Y-81140596D01*
X153771600Y-105003600D02*
X153619200Y-105003600D01*
X153111200Y-84151596D02*
X153111200Y-87672424D01*
X158198200Y-100577000D02*
X153771600Y-105003600D01*
X153111200Y-87672424D02*
X158198200Y-92759424D01*
X156362400Y-67716400D02*
X156122200Y-67956600D01*
X156122200Y-81140596D02*
X153111200Y-84151596D01*
%TO.N,/26*%
X154324300Y-88249128D02*
X158648200Y-92573028D01*
X154324300Y-84988400D02*
X154324300Y-88249128D01*
X156921200Y-64414400D02*
X157087400Y-64580600D01*
X158648200Y-92573028D02*
X158648200Y-101028265D01*
X152977990Y-105810490D02*
X152704800Y-105537300D01*
X157087400Y-82225300D02*
X154324300Y-84988400D01*
X158648200Y-101028265D02*
X153865975Y-105810490D01*
X157087400Y-64580600D02*
X157087400Y-82225300D01*
X153865975Y-105810490D02*
X152977990Y-105810490D01*
%TO.N,/28*%
X154774300Y-88062732D02*
X154774300Y-85344000D01*
X157581600Y-64853711D02*
X157581600Y-82536700D01*
X159098200Y-101251800D02*
X159098200Y-92386632D01*
X159098200Y-92386632D02*
X154774300Y-88062732D01*
X154774300Y-85344000D02*
X157524150Y-82594150D01*
X157581600Y-82536700D02*
X157524150Y-82594150D01*
X158038800Y-64396511D02*
X157581600Y-64853711D01*
X153988600Y-106361400D02*
X159098200Y-101251800D01*
X152653595Y-106535490D02*
X152827685Y-106361400D01*
X152827685Y-106361400D02*
X153988600Y-106361400D01*
%TO.N,/30*%
X159548200Y-92200236D02*
X159548200Y-101868600D01*
X154330400Y-107086400D02*
X153670000Y-107086400D01*
X155752800Y-86456906D02*
X155752800Y-88404836D01*
X158808000Y-68028400D02*
X158808000Y-83401706D01*
X155752800Y-88404836D02*
X159548200Y-92200236D01*
X158808000Y-83401706D02*
X155752800Y-86456906D01*
X159548200Y-101868600D02*
X154330400Y-107086400D01*
X158496000Y-67716400D02*
X158808000Y-68028400D01*
%TO.N,/32*%
X159998200Y-92013840D02*
X156210000Y-88225640D01*
X153669247Y-108085902D02*
X153967294Y-108085902D01*
X156210000Y-88225640D02*
X156210000Y-86636102D01*
X153967294Y-108085902D02*
X159998200Y-102054996D01*
X159998200Y-102054996D02*
X159998200Y-92013840D01*
X159258000Y-67970400D02*
X159537400Y-67691000D01*
X159258000Y-83588102D02*
X159258000Y-67970400D01*
X156210000Y-86636102D02*
X159258000Y-83588102D01*
%TO.N,/38*%
X160448200Y-69133497D02*
X161763697Y-67818000D01*
X160448200Y-103203800D02*
X160448200Y-69133497D01*
X155854400Y-107797600D02*
X160448200Y-103203800D01*
%TD*%
M02*
